G04 #@! TF.GenerationSoftware,KiCad,Pcbnew,5.0.2-bee76a0~70~ubuntu16.04.1*
G04 #@! TF.CreationDate,2021-05-08T15:12:51-07:00*
G04 #@! TF.ProjectId,simple-switching-network,73696d70-6c65-42d7-9377-69746368696e,rev?*
G04 #@! TF.SameCoordinates,Original*
G04 #@! TF.FileFunction,Copper,L1,Top*
G04 #@! TF.FilePolarity,Positive*
%FSLAX46Y46*%
G04 Gerber Fmt 4.6, Leading zero omitted, Abs format (unit mm)*
G04 Created by KiCad (PCBNEW 5.0.2-bee76a0~70~ubuntu16.04.1) date Sat 08 May 2021 03:12:51 PM PDT*
%MOMM*%
%LPD*%
G01*
G04 APERTURE LIST*
G04 #@! TA.AperFunction,ComponentPad*
%ADD10C,3.556000*%
G04 #@! TD*
G04 #@! TA.AperFunction,ComponentPad*
%ADD11C,1.600000*%
G04 #@! TD*
G04 #@! TA.AperFunction,ComponentPad*
%ADD12R,1.600000X1.600000*%
G04 #@! TD*
G04 #@! TA.AperFunction,ComponentPad*
%ADD13R,1.800000X1.800000*%
G04 #@! TD*
G04 #@! TA.AperFunction,ComponentPad*
%ADD14C,1.800000*%
G04 #@! TD*
G04 #@! TA.AperFunction,ComponentPad*
%ADD15R,2.200000X2.200000*%
G04 #@! TD*
G04 #@! TA.AperFunction,ComponentPad*
%ADD16O,2.200000X2.200000*%
G04 #@! TD*
G04 #@! TA.AperFunction,ComponentPad*
%ADD17R,3.500120X3.500120*%
G04 #@! TD*
G04 #@! TA.AperFunction,ComponentPad*
%ADD18C,3.500120*%
G04 #@! TD*
G04 #@! TA.AperFunction,ComponentPad*
%ADD19C,10.160000*%
G04 #@! TD*
G04 #@! TA.AperFunction,ComponentPad*
%ADD20C,1.440000*%
G04 #@! TD*
G04 #@! TA.AperFunction,ComponentPad*
%ADD21C,2.250000*%
G04 #@! TD*
G04 #@! TA.AperFunction,ComponentPad*
%ADD22C,3.600000*%
G04 #@! TD*
G04 #@! TA.AperFunction,ComponentPad*
%ADD23O,1.600000X1.600000*%
G04 #@! TD*
G04 #@! TA.AperFunction,ComponentPad*
%ADD24C,6.400000*%
G04 #@! TD*
G04 #@! TA.AperFunction,Conductor*
%ADD25C,3.810000*%
G04 #@! TD*
G04 #@! TA.AperFunction,Conductor*
%ADD26C,0.508000*%
G04 #@! TD*
G04 #@! TA.AperFunction,Conductor*
%ADD27C,2.540000*%
G04 #@! TD*
G04 #@! TA.AperFunction,Conductor*
%ADD28C,5.080000*%
G04 #@! TD*
G04 APERTURE END LIST*
D10*
G04 #@! TO.P,L2,1*
G04 #@! TO.N,Net-(J2-Pad1)*
X109855000Y-135255000D03*
G04 #@! TO.P,L2,2*
G04 #@! TO.N,Net-(C1-Pad1)*
X92075000Y-135255000D03*
G04 #@! TO.P,L2,4*
G04 #@! TO.N,Net-(C4-Pad2)*
X92075000Y-140335000D03*
G04 #@! TO.P,L2,3*
G04 #@! TO.N,Net-(J2-Pad2)*
X109855000Y-140335000D03*
G04 #@! TD*
D11*
G04 #@! TO.P,C1,2*
G04 #@! TO.N,Net-(C1-Pad2)*
X78205000Y-140970000D03*
G04 #@! TO.P,C1,1*
G04 #@! TO.N,Net-(C1-Pad1)*
X85705000Y-140970000D03*
G04 #@! TO.P,C1,2*
G04 #@! TO.N,Net-(C1-Pad2)*
X79455000Y-140970000D03*
G04 #@! TO.P,C1,1*
G04 #@! TO.N,Net-(C1-Pad1)*
X84455000Y-140970000D03*
G04 #@! TD*
G04 #@! TO.P,C2,1*
G04 #@! TO.N,Net-(C1-Pad1)*
X84455000Y-135255000D03*
G04 #@! TO.P,C2,2*
G04 #@! TO.N,Net-(C1-Pad2)*
X79455000Y-135255000D03*
G04 #@! TO.P,C2,1*
G04 #@! TO.N,Net-(C1-Pad1)*
X85705000Y-135255000D03*
G04 #@! TO.P,C2,2*
G04 #@! TO.N,Net-(C1-Pad2)*
X78205000Y-135255000D03*
G04 #@! TD*
G04 #@! TO.P,C3,1*
G04 #@! TO.N,Net-(C1-Pad1)*
X84475000Y-146685000D03*
G04 #@! TO.P,C3,2*
G04 #@! TO.N,Net-(C1-Pad2)*
X79475000Y-146685000D03*
G04 #@! TO.P,C3,1*
G04 #@! TO.N,Net-(C1-Pad1)*
X85725000Y-146685000D03*
G04 #@! TO.P,C3,2*
G04 #@! TO.N,Net-(C1-Pad2)*
X78225000Y-146685000D03*
G04 #@! TD*
D12*
G04 #@! TO.P,C4,1*
G04 #@! TO.N,Net-(C4-Pad1)*
X83220937Y-77165000D03*
D11*
G04 #@! TO.P,C4,2*
G04 #@! TO.N,Net-(C4-Pad2)*
X85720937Y-77165000D03*
D12*
G04 #@! TO.P,C4,1*
G04 #@! TO.N,Net-(C4-Pad1)*
X82550000Y-75565000D03*
D11*
G04 #@! TO.P,C4,2*
G04 #@! TO.N,Net-(C4-Pad2)*
X86391874Y-78765000D03*
G04 #@! TD*
G04 #@! TO.P,C5,1*
G04 #@! TO.N,Net-(C4-Pad2)*
X86320000Y-94615000D03*
G04 #@! TO.P,C5,2*
G04 #@! TO.N,Net-(C4-Pad1)*
X83820000Y-94615000D03*
G04 #@! TO.P,C5,1*
G04 #@! TO.N,Net-(C4-Pad2)*
X87570000Y-94615000D03*
G04 #@! TO.P,C5,2*
G04 #@! TO.N,Net-(C4-Pad1)*
X82570000Y-94615000D03*
G04 #@! TD*
D13*
G04 #@! TO.P,D1,1*
G04 #@! TO.N,Net-(C4-Pad2)*
X68580000Y-81280000D03*
D14*
G04 #@! TO.P,D1,2*
G04 #@! TO.N,Net-(D1-Pad2)*
X66040000Y-81280000D03*
G04 #@! TD*
D15*
G04 #@! TO.P,D2,1*
G04 #@! TO.N,Net-(C4-Pad1)*
X75565000Y-66040000D03*
D16*
G04 #@! TO.P,D2,2*
G04 #@! TO.N,Net-(C4-Pad2)*
X85725000Y-66040000D03*
G04 #@! TD*
D17*
G04 #@! TO.P,J1,1*
G04 #@! TO.N,Net-(C1-Pad2)*
X79375000Y-154940000D03*
D18*
G04 #@! TO.P,J1,2*
G04 #@! TO.N,Net-(C4-Pad2)*
X84455000Y-154940000D03*
G04 #@! TD*
D19*
G04 #@! TO.P,J2,1*
G04 #@! TO.N,Net-(J2-Pad1)*
X142875000Y-146050000D03*
G04 #@! TO.P,J2,2*
G04 #@! TO.N,Net-(J2-Pad2)*
X123825000Y-146050000D03*
G04 #@! TO.P,J2,3*
G04 #@! TO.N,Net-(J2-Pad3)*
X142875000Y-88900000D03*
G04 #@! TO.P,J2,4*
G04 #@! TO.N,Net-(J2-Pad4)*
X123825000Y-88900000D03*
G04 #@! TD*
D20*
G04 #@! TO.P,J3,1*
G04 #@! TO.N,Net-(J2-Pad3)*
X133350000Y-76200000D03*
D21*
G04 #@! TO.P,J3,2*
G04 #@! TO.N,Net-(J2-Pad4)*
X135890000Y-78740000D03*
X135890000Y-73660000D03*
X130810000Y-73660000D03*
X130810000Y-78740000D03*
G04 #@! TD*
D18*
G04 #@! TO.P,J4,2*
G04 #@! TO.N,Net-(C4-Pad2)*
X80645000Y-60325000D03*
D17*
G04 #@! TO.P,J4,1*
G04 #@! TO.N,Net-(C4-Pad1)*
X75565000Y-60325000D03*
G04 #@! TD*
D22*
G04 #@! TO.P,L1,1*
G04 #@! TO.N,Net-(C1-Pad2)*
X82550000Y-113030000D03*
G04 #@! TO.P,L1,2*
G04 #@! TO.N,Net-(C4-Pad1)*
X82550000Y-100330000D03*
G04 #@! TD*
D11*
G04 #@! TO.P,R1,1*
G04 #@! TO.N,Net-(C4-Pad1)*
X76200000Y-75565000D03*
D23*
G04 #@! TO.P,R1,2*
G04 #@! TO.N,Net-(D1-Pad2)*
X66040000Y-75565000D03*
G04 #@! TD*
D24*
G04 #@! TO.P,TP1,1*
G04 #@! TO.N,Net-(J2-Pad3)*
X146050000Y-63500000D03*
G04 #@! TD*
G04 #@! TO.P,TP2,1*
G04 #@! TO.N,Net-(J2-Pad4)*
X101600000Y-63500000D03*
G04 #@! TD*
G04 #@! TO.P,TP3,1*
G04 #@! TO.N,Net-(J2-Pad3)*
X133350000Y-63500000D03*
G04 #@! TD*
G04 #@! TO.P,TP4,1*
G04 #@! TO.N,Net-(J2-Pad4)*
X114300000Y-63500000D03*
G04 #@! TD*
G04 #@! TO.P,TP5,1*
G04 #@! TO.N,Net-(C4-Pad2)*
X67310000Y-60960000D03*
G04 #@! TD*
G04 #@! TO.P,TP6,1*
G04 #@! TO.N,Net-(C4-Pad2)*
X67310000Y-153670000D03*
G04 #@! TD*
G04 #@! TO.P,TP7,1*
G04 #@! TO.N,Net-(C4-Pad2)*
X160020000Y-60960000D03*
G04 #@! TD*
G04 #@! TO.P,TP8,1*
G04 #@! TO.N,Net-(C4-Pad2)*
X160020000Y-153670000D03*
G04 #@! TD*
D25*
G04 #@! TO.N,Net-(C1-Pad2)*
X79375000Y-147835000D02*
X78225000Y-146685000D01*
X79375000Y-154940000D02*
X79375000Y-147835000D01*
X78225000Y-140990000D02*
X78205000Y-140970000D01*
X78225000Y-146685000D02*
X78225000Y-140990000D01*
X78205000Y-140970000D02*
X78205000Y-135255000D01*
X79455000Y-135255000D02*
X78205000Y-135255000D01*
X79455000Y-140970000D02*
X78205000Y-140970000D01*
X79475000Y-146685000D02*
X78225000Y-146685000D01*
D26*
X79455000Y-116125000D02*
X82550000Y-113030000D01*
X79455000Y-135255000D02*
X79455000Y-116125000D01*
D27*
G04 #@! TO.N,Net-(C1-Pad1)*
X84455000Y-135255000D02*
X85705000Y-135255000D01*
D25*
X92075000Y-135255000D02*
X84455000Y-135255000D01*
X85725000Y-140990000D02*
X85705000Y-140970000D01*
X85725000Y-146685000D02*
X85725000Y-140990000D01*
X85705000Y-140970000D02*
X85705000Y-135255000D01*
X84475000Y-146685000D02*
X85725000Y-146685000D01*
X84455000Y-140970000D02*
X85705000Y-140970000D01*
D26*
G04 #@! TO.N,Net-(C4-Pad1)*
X82550000Y-75565000D02*
X76200000Y-75565000D01*
X83220937Y-76235937D02*
X82550000Y-75565000D01*
X83220937Y-77165000D02*
X83220937Y-76235937D01*
X82550000Y-94635000D02*
X82570000Y-94615000D01*
X82550000Y-100330000D02*
X82550000Y-94635000D01*
X82570000Y-94615000D02*
X83820000Y-94615000D01*
X82570000Y-77815937D02*
X83220937Y-77165000D01*
X82550000Y-78085000D02*
X82570000Y-78105000D01*
X82550000Y-75565000D02*
X82550000Y-78085000D01*
X82570000Y-78105000D02*
X82570000Y-77815937D01*
X82570000Y-94615000D02*
X82570000Y-78105000D01*
X75565000Y-60325000D02*
X75565000Y-66040000D01*
X77173000Y-66040000D02*
X75565000Y-66040000D01*
X82550000Y-71417000D02*
X77173000Y-66040000D01*
X82550000Y-75565000D02*
X82550000Y-71417000D01*
D25*
G04 #@! TO.N,Net-(C4-Pad2)*
X87630000Y-154940000D02*
X84455000Y-154940000D01*
X92075000Y-150495000D02*
X87630000Y-154940000D01*
X92075000Y-140335000D02*
X92075000Y-150495000D01*
D26*
G04 #@! TO.N,Net-(D1-Pad2)*
X66040000Y-81280000D02*
X66040000Y-75565000D01*
D25*
G04 #@! TO.N,Net-(J2-Pad1)*
X132080000Y-135255000D02*
X142875000Y-146050000D01*
X109855000Y-135255000D02*
X132080000Y-135255000D01*
G04 #@! TO.N,Net-(J2-Pad2)*
X115570000Y-146050000D02*
X123825000Y-146050000D01*
X109855000Y-140335000D02*
X115570000Y-146050000D01*
D26*
G04 #@! TO.N,Net-(J2-Pad3)*
X133350000Y-79375000D02*
X142875000Y-88900000D01*
X133350000Y-76200000D02*
X133350000Y-79375000D01*
D28*
X133350000Y-63500000D02*
X146050000Y-63500000D01*
X146050000Y-85725000D02*
X142875000Y-88900000D01*
X146050000Y-63500000D02*
X146050000Y-85725000D01*
D26*
G04 #@! TO.N,Net-(J2-Pad4)*
X135890000Y-78740000D02*
X135890000Y-73660000D01*
X135890000Y-73660000D02*
X130810000Y-73660000D01*
X130810000Y-73660000D02*
X130810000Y-78740000D01*
X130810000Y-81915000D02*
X123825000Y-88900000D01*
X130810000Y-78740000D02*
X130810000Y-81915000D01*
D28*
X123825000Y-73025000D02*
X114300000Y-63500000D01*
X123825000Y-88900000D02*
X123825000Y-73025000D01*
X114300000Y-63500000D02*
X101600000Y-63500000D01*
G04 #@! TD*
M02*
