M48
;DRILL file {KiCad 5.0.2-bee76a0~70~ubuntu16.04.1} date Sat 08 May 2021 03:12:54 PM PDT
;FORMAT={-:-/ absolute / inch / decimal}
FMAT,2
INCH,TZ
T1C0.0315
T2C0.0350
T3C0.0354
T4C0.0433
T5C0.0591
T6C0.0669
T7C0.0709
T8C0.0800
T9C0.1260
T10C0.2500
%
G90
G05
T1
X2.6Y-2.975
X3.Y-2.975
X3.0789Y-5.55
X3.1281Y-5.55
X3.325Y-5.55
X3.3742Y-5.55
X3.2508Y-3.725
X3.3Y-3.725
X3.3984Y-3.725
X3.4476Y-3.725
X3.0789Y-5.325
X3.1281Y-5.325
X3.325Y-5.325
X3.3742Y-5.325
X3.25Y-2.975
X3.2764Y-3.038
X3.3748Y-3.038
X3.4013Y-3.101
X3.0797Y-5.775
X3.1289Y-5.775
X3.3258Y-5.775
X3.375Y-5.775
T2
X5.25Y-3.
T3
X2.6Y-3.2
X2.7Y-3.2
T4
X2.975Y-2.6
X3.375Y-2.6
T5
X3.125Y-6.1
X3.325Y-6.1
X2.975Y-2.375
X3.175Y-2.375
T6
X5.15Y-2.9
X5.15Y-3.1
X5.35Y-2.9
X5.35Y-3.1
T7
X3.25Y-3.95
X3.25Y-4.45
T8
X3.625Y-5.325
X3.625Y-5.525
X4.325Y-5.325
X4.325Y-5.525
T9
X4.Y-2.5
X2.65Y-2.4
X5.75Y-2.5
X5.25Y-2.5
X6.3Y-2.4
X4.5Y-2.5
X2.65Y-6.05
X6.3Y-6.05
T10
X4.875Y-3.5
X4.875Y-5.75
X5.625Y-3.5
X5.625Y-5.75
T0
M30
