M48
;DRILL file {KiCad 5.0.2-bee76a0~70~ubuntu16.04.1} date Sat 01 May 2021 11:56:54 AM PDT
;FORMAT={-:-/ absolute / inch / decimal}
FMAT,2
INCH,TZ
T1C0.0315
T2C0.0394
T3C0.0591
T4C0.2500
%
G90
G05
T1
X5.Y-3.0531
X5.Y-3.25
X5.Y-5.25
X5.Y-5.4469
T2
X5.Y-2.9563
X5.Y-3.35
X5.Y-5.2047
X5.Y-5.5
X5.Y-5.15
X5.Y-5.5437
X5.Y-3.0047
X5.Y-3.3
T3
X5.05Y-3.525
X5.05Y-4.147
X4.95Y-4.35
X4.95Y-4.972
T4
X4.625Y-3.125
X4.625Y-5.375
X5.375Y-3.125
X5.375Y-5.375
T0
M30
