G04 #@! TF.GenerationSoftware,KiCad,Pcbnew,5.0.2-bee76a0~70~ubuntu16.04.1*
G04 #@! TF.CreationDate,2021-05-01T11:56:51-07:00*
G04 #@! TF.ProjectId,matching-network-modules,6d617463-6869-46e6-972d-6e6574776f72,rev?*
G04 #@! TF.SameCoordinates,Original*
G04 #@! TF.FileFunction,Legend,Top*
G04 #@! TF.FilePolarity,Positive*
%FSLAX46Y46*%
G04 Gerber Fmt 4.6, Leading zero omitted, Abs format (unit mm)*
G04 Created by KiCad (PCBNEW 5.0.2-bee76a0~70~ubuntu16.04.1) date Sat 01 May 2021 11:56:51 AM PDT*
%MOMM*%
%LPD*%
G01*
G04 APERTURE LIST*
%ADD10C,0.150000*%
%ADD11C,0.190500*%
%ADD12C,0.381000*%
%ADD13C,0.254000*%
%ADD14C,0.120000*%
G04 APERTURE END LIST*
D10*
G36*
X139065000Y-83820000D02*
X139065000Y-87630000D01*
X148590000Y-87630000D01*
X148590000Y-83820000D01*
X139065000Y-83820000D01*
G37*
X139065000Y-83820000D02*
X139065000Y-87630000D01*
X148590000Y-87630000D01*
X148590000Y-83820000D01*
X139065000Y-83820000D01*
D11*
X107898746Y-74095428D02*
X107608460Y-74095428D01*
X107463317Y-74168000D01*
X107390746Y-74240571D01*
X107245603Y-74458285D01*
X107173032Y-74748571D01*
X107173032Y-75329142D01*
X107245603Y-75474285D01*
X107318175Y-75546857D01*
X107463317Y-75619428D01*
X107753603Y-75619428D01*
X107898746Y-75546857D01*
X107971317Y-75474285D01*
X108043889Y-75329142D01*
X108043889Y-74966285D01*
X107971317Y-74821142D01*
X107898746Y-74748571D01*
X107753603Y-74676000D01*
X107463317Y-74676000D01*
X107318175Y-74748571D01*
X107245603Y-74821142D01*
X107173032Y-74966285D01*
X108697032Y-75619428D02*
X108697032Y-74603428D01*
X108697032Y-74748571D02*
X108769603Y-74676000D01*
X108914746Y-74603428D01*
X109132460Y-74603428D01*
X109277603Y-74676000D01*
X109350175Y-74821142D01*
X109350175Y-75619428D01*
X109350175Y-74821142D02*
X109422746Y-74676000D01*
X109567889Y-74603428D01*
X109785603Y-74603428D01*
X109930746Y-74676000D01*
X110003317Y-74821142D01*
X110003317Y-75619428D01*
X143241032Y-83239428D02*
X142370175Y-83239428D01*
X142805603Y-83239428D02*
X142805603Y-81715428D01*
X142660460Y-81933142D01*
X142515317Y-82078285D01*
X142370175Y-82150857D01*
X144547317Y-81715428D02*
X144257032Y-81715428D01*
X144111889Y-81788000D01*
X144039317Y-81860571D01*
X143894175Y-82078285D01*
X143821603Y-82368571D01*
X143821603Y-82949142D01*
X143894175Y-83094285D01*
X143966746Y-83166857D01*
X144111889Y-83239428D01*
X144402175Y-83239428D01*
X144547317Y-83166857D01*
X144619889Y-83094285D01*
X144692460Y-82949142D01*
X144692460Y-82586285D01*
X144619889Y-82441142D01*
X144547317Y-82368571D01*
X144402175Y-82296000D01*
X144111889Y-82296000D01*
X143966746Y-82368571D01*
X143894175Y-82441142D01*
X143821603Y-82586285D01*
X145635889Y-81715428D02*
X145781032Y-81715428D01*
X145926175Y-81788000D01*
X145998746Y-81860571D01*
X146071317Y-82005714D01*
X146143889Y-82296000D01*
X146143889Y-82658857D01*
X146071317Y-82949142D01*
X145998746Y-83094285D01*
X145926175Y-83166857D01*
X145781032Y-83239428D01*
X145635889Y-83239428D01*
X145490746Y-83166857D01*
X145418175Y-83094285D01*
X145345603Y-82949142D01*
X145273032Y-82658857D01*
X145273032Y-82296000D01*
X145345603Y-82005714D01*
X145418175Y-81860571D01*
X145490746Y-81788000D01*
X145635889Y-81715428D01*
X146797032Y-83239428D02*
X146797032Y-82223428D01*
X146797032Y-82368571D02*
X146869603Y-82296000D01*
X147014746Y-82223428D01*
X147232460Y-82223428D01*
X147377603Y-82296000D01*
X147450175Y-82441142D01*
X147450175Y-83239428D01*
X147450175Y-82441142D02*
X147522746Y-82296000D01*
X147667889Y-82223428D01*
X147885603Y-82223428D01*
X148030746Y-82296000D01*
X148103317Y-82441142D01*
X148103317Y-83239428D01*
X144111889Y-80463571D02*
X143966746Y-80391000D01*
X143894175Y-80318428D01*
X143821603Y-80173285D01*
X143821603Y-80100714D01*
X143894175Y-79955571D01*
X143966746Y-79883000D01*
X144111889Y-79810428D01*
X144402175Y-79810428D01*
X144547317Y-79883000D01*
X144619889Y-79955571D01*
X144692460Y-80100714D01*
X144692460Y-80173285D01*
X144619889Y-80318428D01*
X144547317Y-80391000D01*
X144402175Y-80463571D01*
X144111889Y-80463571D01*
X143966746Y-80536142D01*
X143894175Y-80608714D01*
X143821603Y-80753857D01*
X143821603Y-81044142D01*
X143894175Y-81189285D01*
X143966746Y-81261857D01*
X144111889Y-81334428D01*
X144402175Y-81334428D01*
X144547317Y-81261857D01*
X144619889Y-81189285D01*
X144692460Y-81044142D01*
X144692460Y-80753857D01*
X144619889Y-80608714D01*
X144547317Y-80536142D01*
X144402175Y-80463571D01*
X145635889Y-79810428D02*
X145781032Y-79810428D01*
X145926175Y-79883000D01*
X145998746Y-79955571D01*
X146071317Y-80100714D01*
X146143889Y-80391000D01*
X146143889Y-80753857D01*
X146071317Y-81044142D01*
X145998746Y-81189285D01*
X145926175Y-81261857D01*
X145781032Y-81334428D01*
X145635889Y-81334428D01*
X145490746Y-81261857D01*
X145418175Y-81189285D01*
X145345603Y-81044142D01*
X145273032Y-80753857D01*
X145273032Y-80391000D01*
X145345603Y-80100714D01*
X145418175Y-79955571D01*
X145490746Y-79883000D01*
X145635889Y-79810428D01*
X146797032Y-81334428D02*
X146797032Y-80318428D01*
X146797032Y-80463571D02*
X146869603Y-80391000D01*
X147014746Y-80318428D01*
X147232460Y-80318428D01*
X147377603Y-80391000D01*
X147450175Y-80536142D01*
X147450175Y-81334428D01*
X147450175Y-80536142D02*
X147522746Y-80391000D01*
X147667889Y-80318428D01*
X147885603Y-80318428D01*
X148030746Y-80391000D01*
X148103317Y-80536142D01*
X148103317Y-81334428D01*
X144547317Y-77905428D02*
X144257032Y-77905428D01*
X144111889Y-77978000D01*
X144039317Y-78050571D01*
X143894175Y-78268285D01*
X143821603Y-78558571D01*
X143821603Y-79139142D01*
X143894175Y-79284285D01*
X143966746Y-79356857D01*
X144111889Y-79429428D01*
X144402175Y-79429428D01*
X144547317Y-79356857D01*
X144619889Y-79284285D01*
X144692460Y-79139142D01*
X144692460Y-78776285D01*
X144619889Y-78631142D01*
X144547317Y-78558571D01*
X144402175Y-78486000D01*
X144111889Y-78486000D01*
X143966746Y-78558571D01*
X143894175Y-78631142D01*
X143821603Y-78776285D01*
X145635889Y-77905428D02*
X145781032Y-77905428D01*
X145926175Y-77978000D01*
X145998746Y-78050571D01*
X146071317Y-78195714D01*
X146143889Y-78486000D01*
X146143889Y-78848857D01*
X146071317Y-79139142D01*
X145998746Y-79284285D01*
X145926175Y-79356857D01*
X145781032Y-79429428D01*
X145635889Y-79429428D01*
X145490746Y-79356857D01*
X145418175Y-79284285D01*
X145345603Y-79139142D01*
X145273032Y-78848857D01*
X145273032Y-78486000D01*
X145345603Y-78195714D01*
X145418175Y-78050571D01*
X145490746Y-77978000D01*
X145635889Y-77905428D01*
X146797032Y-79429428D02*
X146797032Y-78413428D01*
X146797032Y-78558571D02*
X146869603Y-78486000D01*
X147014746Y-78413428D01*
X147232460Y-78413428D01*
X147377603Y-78486000D01*
X147450175Y-78631142D01*
X147450175Y-79429428D01*
X147450175Y-78631142D02*
X147522746Y-78486000D01*
X147667889Y-78413428D01*
X147885603Y-78413428D01*
X148030746Y-78486000D01*
X148103317Y-78631142D01*
X148103317Y-79429428D01*
X143749032Y-74095428D02*
X144692460Y-74095428D01*
X144184460Y-74676000D01*
X144402175Y-74676000D01*
X144547317Y-74748571D01*
X144619889Y-74821142D01*
X144692460Y-74966285D01*
X144692460Y-75329142D01*
X144619889Y-75474285D01*
X144547317Y-75546857D01*
X144402175Y-75619428D01*
X143966746Y-75619428D01*
X143821603Y-75546857D01*
X143749032Y-75474285D01*
X145635889Y-74095428D02*
X145781032Y-74095428D01*
X145926175Y-74168000D01*
X145998746Y-74240571D01*
X146071317Y-74385714D01*
X146143889Y-74676000D01*
X146143889Y-75038857D01*
X146071317Y-75329142D01*
X145998746Y-75474285D01*
X145926175Y-75546857D01*
X145781032Y-75619428D01*
X145635889Y-75619428D01*
X145490746Y-75546857D01*
X145418175Y-75474285D01*
X145345603Y-75329142D01*
X145273032Y-75038857D01*
X145273032Y-74676000D01*
X145345603Y-74385714D01*
X145418175Y-74240571D01*
X145490746Y-74168000D01*
X145635889Y-74095428D01*
X146797032Y-75619428D02*
X146797032Y-74603428D01*
X146797032Y-74748571D02*
X146869603Y-74676000D01*
X147014746Y-74603428D01*
X147232460Y-74603428D01*
X147377603Y-74676000D01*
X147450175Y-74821142D01*
X147450175Y-75619428D01*
X147450175Y-74821142D02*
X147522746Y-74676000D01*
X147667889Y-74603428D01*
X147885603Y-74603428D01*
X148030746Y-74676000D01*
X148103317Y-74821142D01*
X148103317Y-75619428D01*
X105721603Y-83765571D02*
X105794175Y-83693000D01*
X105939317Y-83620428D01*
X106302175Y-83620428D01*
X106447317Y-83693000D01*
X106519889Y-83765571D01*
X106592460Y-83910714D01*
X106592460Y-84055857D01*
X106519889Y-84273571D01*
X105649032Y-85144428D01*
X106592460Y-85144428D01*
X107535889Y-83620428D02*
X107681032Y-83620428D01*
X107826175Y-83693000D01*
X107898746Y-83765571D01*
X107971317Y-83910714D01*
X108043889Y-84201000D01*
X108043889Y-84563857D01*
X107971317Y-84854142D01*
X107898746Y-84999285D01*
X107826175Y-85071857D01*
X107681032Y-85144428D01*
X107535889Y-85144428D01*
X107390746Y-85071857D01*
X107318175Y-84999285D01*
X107245603Y-84854142D01*
X107173032Y-84563857D01*
X107173032Y-84201000D01*
X107245603Y-83910714D01*
X107318175Y-83765571D01*
X107390746Y-83693000D01*
X107535889Y-83620428D01*
X108697032Y-85144428D02*
X108697032Y-84128428D01*
X108697032Y-84273571D02*
X108769603Y-84201000D01*
X108914746Y-84128428D01*
X109132460Y-84128428D01*
X109277603Y-84201000D01*
X109350175Y-84346142D01*
X109350175Y-85144428D01*
X109350175Y-84346142D02*
X109422746Y-84201000D01*
X109567889Y-84128428D01*
X109785603Y-84128428D01*
X109930746Y-84201000D01*
X110003317Y-84346142D01*
X110003317Y-85144428D01*
X144547317Y-76508428D02*
X144547317Y-77524428D01*
X144184460Y-75927857D02*
X143821603Y-77016428D01*
X144765032Y-77016428D01*
X145635889Y-76000428D02*
X145781032Y-76000428D01*
X145926175Y-76073000D01*
X145998746Y-76145571D01*
X146071317Y-76290714D01*
X146143889Y-76581000D01*
X146143889Y-76943857D01*
X146071317Y-77234142D01*
X145998746Y-77379285D01*
X145926175Y-77451857D01*
X145781032Y-77524428D01*
X145635889Y-77524428D01*
X145490746Y-77451857D01*
X145418175Y-77379285D01*
X145345603Y-77234142D01*
X145273032Y-76943857D01*
X145273032Y-76581000D01*
X145345603Y-76290714D01*
X145418175Y-76145571D01*
X145490746Y-76073000D01*
X145635889Y-76000428D01*
X146797032Y-77524428D02*
X146797032Y-76508428D01*
X146797032Y-76653571D02*
X146869603Y-76581000D01*
X147014746Y-76508428D01*
X147232460Y-76508428D01*
X147377603Y-76581000D01*
X147450175Y-76726142D01*
X147450175Y-77524428D01*
X147450175Y-76726142D02*
X147522746Y-76581000D01*
X147667889Y-76508428D01*
X147885603Y-76508428D01*
X148030746Y-76581000D01*
X148103317Y-76726142D01*
X148103317Y-77524428D01*
X106592460Y-83239428D02*
X105721603Y-83239428D01*
X106157032Y-83239428D02*
X106157032Y-81715428D01*
X106011889Y-81933142D01*
X105866746Y-82078285D01*
X105721603Y-82150857D01*
X107100460Y-81715428D02*
X108116460Y-81715428D01*
X107463317Y-83239428D01*
X108697032Y-83239428D02*
X108697032Y-82223428D01*
X108697032Y-82368571D02*
X108769603Y-82296000D01*
X108914746Y-82223428D01*
X109132460Y-82223428D01*
X109277603Y-82296000D01*
X109350175Y-82441142D01*
X109350175Y-83239428D01*
X109350175Y-82441142D02*
X109422746Y-82296000D01*
X109567889Y-82223428D01*
X109785603Y-82223428D01*
X109930746Y-82296000D01*
X110003317Y-82441142D01*
X110003317Y-83239428D01*
X106592460Y-81334428D02*
X105721603Y-81334428D01*
X106157032Y-81334428D02*
X106157032Y-79810428D01*
X106011889Y-80028142D01*
X105866746Y-80173285D01*
X105721603Y-80245857D01*
X107971317Y-79810428D02*
X107245603Y-79810428D01*
X107173032Y-80536142D01*
X107245603Y-80463571D01*
X107390746Y-80391000D01*
X107753603Y-80391000D01*
X107898746Y-80463571D01*
X107971317Y-80536142D01*
X108043889Y-80681285D01*
X108043889Y-81044142D01*
X107971317Y-81189285D01*
X107898746Y-81261857D01*
X107753603Y-81334428D01*
X107390746Y-81334428D01*
X107245603Y-81261857D01*
X107173032Y-81189285D01*
X108697032Y-81334428D02*
X108697032Y-80318428D01*
X108697032Y-80463571D02*
X108769603Y-80391000D01*
X108914746Y-80318428D01*
X109132460Y-80318428D01*
X109277603Y-80391000D01*
X109350175Y-80536142D01*
X109350175Y-81334428D01*
X109350175Y-80536142D02*
X109422746Y-80391000D01*
X109567889Y-80318428D01*
X109785603Y-80318428D01*
X109930746Y-80391000D01*
X110003317Y-80536142D01*
X110003317Y-81334428D01*
X106592460Y-79429428D02*
X105721603Y-79429428D01*
X106157032Y-79429428D02*
X106157032Y-77905428D01*
X106011889Y-78123142D01*
X105866746Y-78268285D01*
X105721603Y-78340857D01*
X107173032Y-78050571D02*
X107245603Y-77978000D01*
X107390746Y-77905428D01*
X107753603Y-77905428D01*
X107898746Y-77978000D01*
X107971317Y-78050571D01*
X108043889Y-78195714D01*
X108043889Y-78340857D01*
X107971317Y-78558571D01*
X107100460Y-79429428D01*
X108043889Y-79429428D01*
X108697032Y-79429428D02*
X108697032Y-78413428D01*
X108697032Y-78558571D02*
X108769603Y-78486000D01*
X108914746Y-78413428D01*
X109132460Y-78413428D01*
X109277603Y-78486000D01*
X109350175Y-78631142D01*
X109350175Y-79429428D01*
X109350175Y-78631142D02*
X109422746Y-78486000D01*
X109567889Y-78413428D01*
X109785603Y-78413428D01*
X109930746Y-78486000D01*
X110003317Y-78631142D01*
X110003317Y-79429428D01*
X106592460Y-77524428D02*
X105721603Y-77524428D01*
X106157032Y-77524428D02*
X106157032Y-76000428D01*
X106011889Y-76218142D01*
X105866746Y-76363285D01*
X105721603Y-76435857D01*
X107535889Y-76000428D02*
X107681032Y-76000428D01*
X107826175Y-76073000D01*
X107898746Y-76145571D01*
X107971317Y-76290714D01*
X108043889Y-76581000D01*
X108043889Y-76943857D01*
X107971317Y-77234142D01*
X107898746Y-77379285D01*
X107826175Y-77451857D01*
X107681032Y-77524428D01*
X107535889Y-77524428D01*
X107390746Y-77451857D01*
X107318175Y-77379285D01*
X107245603Y-77234142D01*
X107173032Y-76943857D01*
X107173032Y-76581000D01*
X107245603Y-76290714D01*
X107318175Y-76145571D01*
X107390746Y-76073000D01*
X107535889Y-76000428D01*
X108697032Y-77524428D02*
X108697032Y-76508428D01*
X108697032Y-76653571D02*
X108769603Y-76581000D01*
X108914746Y-76508428D01*
X109132460Y-76508428D01*
X109277603Y-76581000D01*
X109350175Y-76726142D01*
X109350175Y-77524428D01*
X109350175Y-76726142D02*
X109422746Y-76581000D01*
X109567889Y-76508428D01*
X109785603Y-76508428D01*
X109930746Y-76581000D01*
X110003317Y-76726142D01*
X110003317Y-77524428D01*
D12*
X126268540Y-136162142D02*
X126147588Y-136283095D01*
X125784730Y-136404047D01*
X125542826Y-136404047D01*
X125179969Y-136283095D01*
X124938064Y-136041190D01*
X124817111Y-135799285D01*
X124696159Y-135315476D01*
X124696159Y-134952619D01*
X124817111Y-134468809D01*
X124938064Y-134226904D01*
X125179969Y-133985000D01*
X125542826Y-133864047D01*
X125784730Y-133864047D01*
X126147588Y-133985000D01*
X126268540Y-134105952D01*
D13*
X126772004Y-137039047D02*
X126892957Y-137099523D01*
X127134861Y-137099523D01*
X127255814Y-137039047D01*
X127316290Y-136918095D01*
X127316290Y-136857619D01*
X127255814Y-136736666D01*
X127134861Y-136676190D01*
X126953433Y-136676190D01*
X126832480Y-136615714D01*
X126772004Y-136494761D01*
X126772004Y-136434285D01*
X126832480Y-136313333D01*
X126953433Y-136252857D01*
X127134861Y-136252857D01*
X127255814Y-136313333D01*
X127860576Y-137099523D02*
X127860576Y-136252857D01*
X127860576Y-136494761D02*
X127921052Y-136373809D01*
X127981528Y-136313333D01*
X128102480Y-136252857D01*
X128223433Y-136252857D01*
X129191052Y-137039047D02*
X129070100Y-137099523D01*
X128828195Y-137099523D01*
X128707242Y-137039047D01*
X128646766Y-136978571D01*
X128586290Y-136857619D01*
X128586290Y-136494761D01*
X128646766Y-136373809D01*
X128707242Y-136313333D01*
X128828195Y-136252857D01*
X129070100Y-136252857D01*
X129191052Y-136313333D01*
X126378909Y-81219523D02*
X126257957Y-81159047D01*
X126197480Y-81038095D01*
X126197480Y-79949523D01*
X127044147Y-81219523D02*
X126923195Y-81159047D01*
X126862719Y-81098571D01*
X126802242Y-80977619D01*
X126802242Y-80614761D01*
X126862719Y-80493809D01*
X126923195Y-80433333D01*
X127044147Y-80372857D01*
X127225576Y-80372857D01*
X127346528Y-80433333D01*
X127407004Y-80493809D01*
X127467480Y-80614761D01*
X127467480Y-80977619D01*
X127407004Y-81098571D01*
X127346528Y-81159047D01*
X127225576Y-81219523D01*
X127044147Y-81219523D01*
X128556052Y-81219523D02*
X128556052Y-80554285D01*
X128495576Y-80433333D01*
X128374623Y-80372857D01*
X128132719Y-80372857D01*
X128011766Y-80433333D01*
X128556052Y-81159047D02*
X128435100Y-81219523D01*
X128132719Y-81219523D01*
X128011766Y-81159047D01*
X127951290Y-81038095D01*
X127951290Y-80917142D01*
X128011766Y-80796190D01*
X128132719Y-80735714D01*
X128435100Y-80735714D01*
X128556052Y-80675238D01*
X129705100Y-81219523D02*
X129705100Y-79949523D01*
X129705100Y-81159047D02*
X129584147Y-81219523D01*
X129342242Y-81219523D01*
X129221290Y-81159047D01*
X129160814Y-81098571D01*
X129100338Y-80977619D01*
X129100338Y-80614761D01*
X129160814Y-80493809D01*
X129221290Y-80433333D01*
X129342242Y-80372857D01*
X129584147Y-80372857D01*
X129705100Y-80433333D01*
D12*
X127483809Y-97669047D02*
X126274285Y-97669047D01*
X126274285Y-95129047D01*
X128330476Y-96701428D02*
X130265714Y-96701428D01*
X124943809Y-119259047D02*
X123734285Y-119259047D01*
X123734285Y-116719047D01*
X125790476Y-118291428D02*
X127725714Y-118291428D01*
X126758095Y-119259047D02*
X126758095Y-117323809D01*
X170391666Y-131082142D02*
X170270714Y-131203095D01*
X169907857Y-131324047D01*
X169665952Y-131324047D01*
X169303095Y-131203095D01*
X169061190Y-130961190D01*
X168940238Y-130719285D01*
X168819285Y-130235476D01*
X168819285Y-129872619D01*
X168940238Y-129388809D01*
X169061190Y-129146904D01*
X169303095Y-128905000D01*
X169665952Y-128784047D01*
X169907857Y-128784047D01*
X170270714Y-128905000D01*
X170391666Y-129025952D01*
X171359285Y-129025952D02*
X171480238Y-128905000D01*
X171722142Y-128784047D01*
X172326904Y-128784047D01*
X172568809Y-128905000D01*
X172689761Y-129025952D01*
X172810714Y-129267857D01*
X172810714Y-129509761D01*
X172689761Y-129872619D01*
X171238333Y-131324047D01*
X172810714Y-131324047D01*
X125633540Y-80282142D02*
X125512588Y-80403095D01*
X125149730Y-80524047D01*
X124907826Y-80524047D01*
X124544969Y-80403095D01*
X124303064Y-80161190D01*
X124182111Y-79919285D01*
X124061159Y-79435476D01*
X124061159Y-79072619D01*
X124182111Y-78588809D01*
X124303064Y-78346904D01*
X124544969Y-78105000D01*
X124907826Y-77984047D01*
X125149730Y-77984047D01*
X125512588Y-78105000D01*
X125633540Y-78225952D01*
X140637380Y-74476428D02*
X142572619Y-74476428D01*
X140002380Y-141786428D02*
X141937619Y-141786428D01*
X112062380Y-141786428D02*
X113997619Y-141786428D01*
X113030000Y-142754047D02*
X113030000Y-140818809D01*
X112062380Y-74476428D02*
X113997619Y-74476428D01*
X113030000Y-75444047D02*
X113030000Y-73508809D01*
D14*
G04 #@! TO.C,C1*
X128870000Y-83670000D02*
X125130000Y-83670000D01*
X128870000Y-76430000D02*
X125130000Y-76430000D01*
X125130000Y-76430000D02*
X125130000Y-83670000D01*
X128870000Y-76430000D02*
X128870000Y-83670000D01*
G04 #@! TO.C,C2*
X129120000Y-74950000D02*
X129120000Y-85190000D01*
X124880000Y-74950000D02*
X124880000Y-85190000D01*
X129120000Y-74950000D02*
X124880000Y-74950000D01*
X129120000Y-85190000D02*
X124880000Y-85190000D01*
G04 #@! TO.C,C3*
X129620000Y-73470000D02*
X129620000Y-86710000D01*
X124380000Y-73470000D02*
X124380000Y-86710000D01*
X129620000Y-73470000D02*
X124380000Y-73470000D01*
X129620000Y-86710000D02*
X124380000Y-86710000D01*
G04 #@! TO.C,C4*
X128870000Y-132230000D02*
X128870000Y-139470000D01*
X125130000Y-132230000D02*
X125130000Y-139470000D01*
X128870000Y-132230000D02*
X125130000Y-132230000D01*
X128870000Y-139470000D02*
X125130000Y-139470000D01*
G04 #@! TO.C,C5*
X129120000Y-141070000D02*
X124880000Y-141070000D01*
X129120000Y-130830000D02*
X124880000Y-130830000D01*
X124880000Y-130830000D02*
X124880000Y-141070000D01*
X129120000Y-130830000D02*
X129120000Y-141070000D01*
G04 #@! TO.C,C6*
X129620000Y-142430000D02*
X124380000Y-142430000D01*
X129620000Y-129190000D02*
X124380000Y-129190000D01*
X124380000Y-129190000D02*
X124380000Y-142430000D01*
X129620000Y-129190000D02*
X129620000Y-142430000D01*
G04 #@! TO.C,L1*
X104660000Y-108720000D02*
X146800000Y-108720000D01*
X104660000Y-128060000D02*
X146800000Y-128060000D01*
X104660000Y-108720000D02*
X104660000Y-128060000D01*
X146800000Y-108720000D02*
X146800000Y-128060000D01*
G04 #@! TO.C,L2*
X149340000Y-87765000D02*
X149340000Y-107105000D01*
X107200000Y-87765000D02*
X107200000Y-107105000D01*
X107200000Y-107105000D02*
X149340000Y-107105000D01*
X107200000Y-87765000D02*
X149340000Y-87765000D01*
D10*
G04 #@! TO.C,J1*
X104775000Y-73025000D02*
X104775000Y-136525000D01*
X111125000Y-142875000D02*
X142875000Y-142875000D01*
X149225000Y-136525000D02*
X149225000Y-73025000D01*
X142875000Y-73025000D02*
X111125000Y-73025000D01*
X104775000Y-136525000D02*
X104775000Y-142875000D01*
X104775000Y-142875000D02*
X111125000Y-142875000D01*
X142875000Y-142875000D02*
X149225000Y-142875000D01*
X149225000Y-142875000D02*
X149225000Y-136525000D01*
X104775000Y-73025000D02*
X111125000Y-73025000D01*
X142875000Y-73025000D02*
X149225000Y-73025000D01*
G04 #@! TD*
M02*
