G04 #@! TF.GenerationSoftware,KiCad,Pcbnew,5.0.2-bee76a0~70~ubuntu16.04.1*
G04 #@! TF.CreationDate,2021-05-01T11:56:51-07:00*
G04 #@! TF.ProjectId,matching-network-modules,6d617463-6869-46e6-972d-6e6574776f72,rev?*
G04 #@! TF.SameCoordinates,Original*
G04 #@! TF.FileFunction,Legend,Bot*
G04 #@! TF.FilePolarity,Positive*
%FSLAX46Y46*%
G04 Gerber Fmt 4.6, Leading zero omitted, Abs format (unit mm)*
G04 Created by KiCad (PCBNEW 5.0.2-bee76a0~70~ubuntu16.04.1) date Sat 01 May 2021 11:56:51 AM PDT*
%MOMM*%
%LPD*%
G01*
G04 APERTURE LIST*
%ADD10C,0.381000*%
%ADD11C,0.150000*%
%ADD12C,0.300000*%
%ADD13C,0.200000*%
G04 APERTURE END LIST*
D10*
X108403571Y-78679523D02*
X108524523Y-79042380D01*
X108645476Y-79163333D01*
X108887380Y-79284285D01*
X109250238Y-79284285D01*
X109492142Y-79163333D01*
X109613095Y-79042380D01*
X109734047Y-78800476D01*
X109734047Y-77832857D01*
X107194047Y-77832857D01*
X107194047Y-78679523D01*
X107315000Y-78921428D01*
X107435952Y-79042380D01*
X107677857Y-79163333D01*
X107919761Y-79163333D01*
X108161666Y-79042380D01*
X108282619Y-78921428D01*
X108403571Y-78679523D01*
X108403571Y-77832857D01*
X109734047Y-81461428D02*
X108403571Y-81461428D01*
X108161666Y-81340476D01*
X108040714Y-81098571D01*
X108040714Y-80614761D01*
X108161666Y-80372857D01*
X109613095Y-81461428D02*
X109734047Y-81219523D01*
X109734047Y-80614761D01*
X109613095Y-80372857D01*
X109371190Y-80251904D01*
X109129285Y-80251904D01*
X108887380Y-80372857D01*
X108766428Y-80614761D01*
X108766428Y-81219523D01*
X108645476Y-81461428D01*
X108040714Y-82670952D02*
X109734047Y-82670952D01*
X108282619Y-82670952D02*
X108161666Y-82791904D01*
X108040714Y-83033809D01*
X108040714Y-83396666D01*
X108161666Y-83638571D01*
X108403571Y-83759523D01*
X109734047Y-83759523D01*
X109734047Y-86057619D02*
X107194047Y-86057619D01*
X109613095Y-86057619D02*
X109734047Y-85815714D01*
X109734047Y-85331904D01*
X109613095Y-85090000D01*
X109492142Y-84969047D01*
X109250238Y-84848095D01*
X108524523Y-84848095D01*
X108282619Y-84969047D01*
X108161666Y-85090000D01*
X108040714Y-85331904D01*
X108040714Y-85815714D01*
X108161666Y-86057619D01*
X109492142Y-87267142D02*
X109613095Y-87388095D01*
X109734047Y-87267142D01*
X109613095Y-87146190D01*
X109492142Y-87267142D01*
X109734047Y-87267142D01*
X108161666Y-87267142D02*
X108282619Y-87388095D01*
X108403571Y-87267142D01*
X108282619Y-87146190D01*
X108161666Y-87267142D01*
X108403571Y-87267142D01*
D11*
G36*
X104775000Y-127635000D02*
X123825000Y-127635000D01*
X123825000Y-88265000D01*
X104775000Y-88265000D01*
X104775000Y-127635000D01*
G37*
X104775000Y-127635000D02*
X123825000Y-127635000D01*
X123825000Y-88265000D01*
X104775000Y-88265000D01*
X104775000Y-127635000D01*
D12*
X131332857Y-88682142D02*
X131404285Y-88896428D01*
X131475714Y-88967857D01*
X131618571Y-89039285D01*
X131832857Y-89039285D01*
X131975714Y-88967857D01*
X132047142Y-88896428D01*
X132118571Y-88753571D01*
X132118571Y-88182142D01*
X130618571Y-88182142D01*
X130618571Y-88682142D01*
X130690000Y-88825000D01*
X130761428Y-88896428D01*
X130904285Y-88967857D01*
X131047142Y-88967857D01*
X131190000Y-88896428D01*
X131261428Y-88825000D01*
X131332857Y-88682142D01*
X131332857Y-88182142D01*
X132118571Y-89682142D02*
X131118571Y-89682142D01*
X131404285Y-89682142D02*
X131261428Y-89753571D01*
X131190000Y-89825000D01*
X131118571Y-89967857D01*
X131118571Y-90110714D01*
X132118571Y-90610714D02*
X131118571Y-90610714D01*
X130618571Y-90610714D02*
X130690000Y-90539285D01*
X130761428Y-90610714D01*
X130690000Y-90682142D01*
X130618571Y-90610714D01*
X130761428Y-90610714D01*
X132118571Y-91967857D02*
X130618571Y-91967857D01*
X132047142Y-91967857D02*
X132118571Y-91825000D01*
X132118571Y-91539285D01*
X132047142Y-91396428D01*
X131975714Y-91325000D01*
X131832857Y-91253571D01*
X131404285Y-91253571D01*
X131261428Y-91325000D01*
X131190000Y-91396428D01*
X131118571Y-91539285D01*
X131118571Y-91825000D01*
X131190000Y-91967857D01*
X131118571Y-93325000D02*
X132332857Y-93325000D01*
X132475714Y-93253571D01*
X132547142Y-93182142D01*
X132618571Y-93039285D01*
X132618571Y-92825000D01*
X132547142Y-92682142D01*
X132047142Y-93325000D02*
X132118571Y-93182142D01*
X132118571Y-92896428D01*
X132047142Y-92753571D01*
X131975714Y-92682142D01*
X131832857Y-92610714D01*
X131404285Y-92610714D01*
X131261428Y-92682142D01*
X131190000Y-92753571D01*
X131118571Y-92896428D01*
X131118571Y-93182142D01*
X131190000Y-93325000D01*
X132047142Y-94610714D02*
X132118571Y-94467857D01*
X132118571Y-94182142D01*
X132047142Y-94039285D01*
X131904285Y-93967857D01*
X131332857Y-93967857D01*
X131190000Y-94039285D01*
X131118571Y-94182142D01*
X131118571Y-94467857D01*
X131190000Y-94610714D01*
X131332857Y-94682142D01*
X131475714Y-94682142D01*
X131618571Y-93967857D01*
X132118571Y-96467857D02*
X130618571Y-96467857D01*
X132118571Y-97110714D02*
X131332857Y-97110714D01*
X131190000Y-97039285D01*
X131118571Y-96896428D01*
X131118571Y-96682142D01*
X131190000Y-96539285D01*
X131261428Y-96467857D01*
X132047142Y-98396428D02*
X132118571Y-98253571D01*
X132118571Y-97967857D01*
X132047142Y-97825000D01*
X131904285Y-97753571D01*
X131332857Y-97753571D01*
X131190000Y-97825000D01*
X131118571Y-97967857D01*
X131118571Y-98253571D01*
X131190000Y-98396428D01*
X131332857Y-98467857D01*
X131475714Y-98467857D01*
X131618571Y-97753571D01*
X132118571Y-99110714D02*
X131118571Y-99110714D01*
X131404285Y-99110714D02*
X131261428Y-99182142D01*
X131190000Y-99253571D01*
X131118571Y-99396428D01*
X131118571Y-99539285D01*
X132047142Y-100610714D02*
X132118571Y-100467857D01*
X132118571Y-100182142D01*
X132047142Y-100039285D01*
X131904285Y-99967857D01*
X131332857Y-99967857D01*
X131190000Y-100039285D01*
X131118571Y-100182142D01*
X131118571Y-100467857D01*
X131190000Y-100610714D01*
X131332857Y-100682142D01*
X131475714Y-100682142D01*
X131618571Y-99967857D01*
X131118571Y-102253571D02*
X131118571Y-102825000D01*
X132118571Y-102467857D02*
X130832857Y-102467857D01*
X130690000Y-102539285D01*
X130618571Y-102682142D01*
X130618571Y-102825000D01*
X132118571Y-103539285D02*
X132047142Y-103396428D01*
X131975714Y-103325000D01*
X131832857Y-103253571D01*
X131404285Y-103253571D01*
X131261428Y-103325000D01*
X131190000Y-103396428D01*
X131118571Y-103539285D01*
X131118571Y-103753571D01*
X131190000Y-103896428D01*
X131261428Y-103967857D01*
X131404285Y-104039285D01*
X131832857Y-104039285D01*
X131975714Y-103967857D01*
X132047142Y-103896428D01*
X132118571Y-103753571D01*
X132118571Y-103539285D01*
X132118571Y-104682142D02*
X131118571Y-104682142D01*
X131404285Y-104682142D02*
X131261428Y-104753571D01*
X131190000Y-104825000D01*
X131118571Y-104967857D01*
X131118571Y-105110714D01*
X133668571Y-88825000D02*
X134668571Y-88825000D01*
X133668571Y-88182142D02*
X134454285Y-88182142D01*
X134597142Y-88253571D01*
X134668571Y-88396428D01*
X134668571Y-88610714D01*
X134597142Y-88753571D01*
X134525714Y-88825000D01*
X133668571Y-89539285D02*
X134668571Y-89539285D01*
X133811428Y-89539285D02*
X133740000Y-89610714D01*
X133668571Y-89753571D01*
X133668571Y-89967857D01*
X133740000Y-90110714D01*
X133882857Y-90182142D01*
X134668571Y-90182142D01*
X134668571Y-90896428D02*
X133168571Y-90896428D01*
X133740000Y-90896428D02*
X133668571Y-91039285D01*
X133668571Y-91325000D01*
X133740000Y-91467857D01*
X133811428Y-91539285D01*
X133954285Y-91610714D01*
X134382857Y-91610714D01*
X134525714Y-91539285D01*
X134597142Y-91467857D01*
X134668571Y-91325000D01*
X134668571Y-91039285D01*
X134597142Y-90896428D01*
X134668571Y-92896428D02*
X133882857Y-92896428D01*
X133740000Y-92825000D01*
X133668571Y-92682142D01*
X133668571Y-92396428D01*
X133740000Y-92253571D01*
X134597142Y-92896428D02*
X134668571Y-92753571D01*
X134668571Y-92396428D01*
X134597142Y-92253571D01*
X134454285Y-92182142D01*
X134311428Y-92182142D01*
X134168571Y-92253571D01*
X134097142Y-92396428D01*
X134097142Y-92753571D01*
X134025714Y-92896428D01*
X134668571Y-93825000D02*
X134597142Y-93682142D01*
X134454285Y-93610714D01*
X133168571Y-93610714D01*
X134668571Y-95039285D02*
X133882857Y-95039285D01*
X133740000Y-94967857D01*
X133668571Y-94825000D01*
X133668571Y-94539285D01*
X133740000Y-94396428D01*
X134597142Y-95039285D02*
X134668571Y-94896428D01*
X134668571Y-94539285D01*
X134597142Y-94396428D01*
X134454285Y-94325000D01*
X134311428Y-94325000D01*
X134168571Y-94396428D01*
X134097142Y-94539285D01*
X134097142Y-94896428D01*
X134025714Y-95039285D01*
X133668571Y-95753571D02*
X134668571Y-95753571D01*
X133811428Y-95753571D02*
X133740000Y-95825000D01*
X133668571Y-95967857D01*
X133668571Y-96182142D01*
X133740000Y-96325000D01*
X133882857Y-96396428D01*
X134668571Y-96396428D01*
X134597142Y-97753571D02*
X134668571Y-97610714D01*
X134668571Y-97325000D01*
X134597142Y-97182142D01*
X134525714Y-97110714D01*
X134382857Y-97039285D01*
X133954285Y-97039285D01*
X133811428Y-97110714D01*
X133740000Y-97182142D01*
X133668571Y-97325000D01*
X133668571Y-97610714D01*
X133740000Y-97753571D01*
X134597142Y-98967857D02*
X134668571Y-98825000D01*
X134668571Y-98539285D01*
X134597142Y-98396428D01*
X134454285Y-98325000D01*
X133882857Y-98325000D01*
X133740000Y-98396428D01*
X133668571Y-98539285D01*
X133668571Y-98825000D01*
X133740000Y-98967857D01*
X133882857Y-99039285D01*
X134025714Y-99039285D01*
X134168571Y-98325000D01*
X134668571Y-100325000D02*
X133168571Y-100325000D01*
X134597142Y-100325000D02*
X134668571Y-100182142D01*
X134668571Y-99896428D01*
X134597142Y-99753571D01*
X134525714Y-99682142D01*
X134382857Y-99610714D01*
X133954285Y-99610714D01*
X133811428Y-99682142D01*
X133740000Y-99753571D01*
X133668571Y-99896428D01*
X133668571Y-100182142D01*
X133740000Y-100325000D01*
X134668571Y-102182142D02*
X133668571Y-102182142D01*
X133811428Y-102182142D02*
X133740000Y-102253571D01*
X133668571Y-102396428D01*
X133668571Y-102610714D01*
X133740000Y-102753571D01*
X133882857Y-102825000D01*
X134668571Y-102825000D01*
X133882857Y-102825000D02*
X133740000Y-102896428D01*
X133668571Y-103039285D01*
X133668571Y-103253571D01*
X133740000Y-103396428D01*
X133882857Y-103467857D01*
X134668571Y-103467857D01*
X134668571Y-104825000D02*
X133882857Y-104825000D01*
X133740000Y-104753571D01*
X133668571Y-104610714D01*
X133668571Y-104325000D01*
X133740000Y-104182142D01*
X134597142Y-104825000D02*
X134668571Y-104682142D01*
X134668571Y-104325000D01*
X134597142Y-104182142D01*
X134454285Y-104110714D01*
X134311428Y-104110714D01*
X134168571Y-104182142D01*
X134097142Y-104325000D01*
X134097142Y-104682142D01*
X134025714Y-104825000D01*
X133668571Y-105325000D02*
X133668571Y-105896428D01*
X133168571Y-105539285D02*
X134454285Y-105539285D01*
X134597142Y-105610714D01*
X134668571Y-105753571D01*
X134668571Y-105896428D01*
X134597142Y-107039285D02*
X134668571Y-106896428D01*
X134668571Y-106610714D01*
X134597142Y-106467857D01*
X134525714Y-106396428D01*
X134382857Y-106325000D01*
X133954285Y-106325000D01*
X133811428Y-106396428D01*
X133740000Y-106467857D01*
X133668571Y-106610714D01*
X133668571Y-106896428D01*
X133740000Y-107039285D01*
X134668571Y-107682142D02*
X133168571Y-107682142D01*
X134668571Y-108325000D02*
X133882857Y-108325000D01*
X133740000Y-108253571D01*
X133668571Y-108110714D01*
X133668571Y-107896428D01*
X133740000Y-107753571D01*
X133811428Y-107682142D01*
D13*
X128270000Y-105410000D02*
X128270000Y-89535000D01*
M02*
