G04 #@! TF.GenerationSoftware,KiCad,Pcbnew,5.0.2-bee76a0~70~ubuntu16.04.1*
G04 #@! TF.CreationDate,2021-05-01T11:56:51-07:00*
G04 #@! TF.ProjectId,matching-network-modules,6d617463-6869-46e6-972d-6e6574776f72,rev?*
G04 #@! TF.SameCoordinates,Original*
G04 #@! TF.FileFunction,Soldermask,Top*
G04 #@! TF.FilePolarity,Negative*
%FSLAX46Y46*%
G04 Gerber Fmt 4.6, Leading zero omitted, Abs format (unit mm)*
G04 Created by KiCad (PCBNEW 5.0.2-bee76a0~70~ubuntu16.04.1) date Sat 01 May 2021 11:56:51 AM PDT*
%MOMM*%
%LPD*%
G01*
G04 APERTURE LIST*
%ADD10C,0.100000*%
G04 APERTURE END LIST*
D10*
G36*
X127248228Y-137531703D02*
X127403100Y-137595853D01*
X127542481Y-137688985D01*
X127661015Y-137807519D01*
X127754147Y-137946900D01*
X127818297Y-138101772D01*
X127851000Y-138266184D01*
X127851000Y-138433816D01*
X127818297Y-138598228D01*
X127754147Y-138753100D01*
X127725136Y-138796518D01*
X127713588Y-138818123D01*
X127706475Y-138841572D01*
X127704073Y-138865958D01*
X127706475Y-138890344D01*
X127713588Y-138913794D01*
X127725139Y-138935404D01*
X127740685Y-138954346D01*
X127816363Y-139030024D01*
X127931385Y-139202166D01*
X128010611Y-139393435D01*
X128051000Y-139596484D01*
X128051000Y-139803516D01*
X128010611Y-140006565D01*
X127927520Y-140207165D01*
X127920407Y-140230614D01*
X127918005Y-140255000D01*
X127920407Y-140279386D01*
X127927520Y-140302835D01*
X128010611Y-140503435D01*
X128051000Y-140706484D01*
X128051000Y-140913516D01*
X128010611Y-141116565D01*
X127931385Y-141307834D01*
X127816363Y-141479976D01*
X127669976Y-141626363D01*
X127497834Y-141741385D01*
X127306565Y-141820611D01*
X127103516Y-141861000D01*
X126896484Y-141861000D01*
X126693435Y-141820611D01*
X126502166Y-141741385D01*
X126330024Y-141626363D01*
X126183637Y-141479976D01*
X126068615Y-141307834D01*
X125989389Y-141116565D01*
X125949000Y-140913516D01*
X125949000Y-140706484D01*
X125989389Y-140503435D01*
X126072480Y-140302835D01*
X126079593Y-140279386D01*
X126081995Y-140255000D01*
X126079593Y-140230614D01*
X126072480Y-140207165D01*
X125989389Y-140006565D01*
X125949000Y-139803516D01*
X125949000Y-139596484D01*
X125989389Y-139393435D01*
X126068615Y-139202166D01*
X126183637Y-139030024D01*
X126259315Y-138954346D01*
X126274861Y-138935404D01*
X126286412Y-138913793D01*
X126293525Y-138890344D01*
X126295927Y-138865958D01*
X126293525Y-138841572D01*
X126286412Y-138818123D01*
X126274864Y-138796518D01*
X126245853Y-138753100D01*
X126181703Y-138598228D01*
X126149000Y-138433816D01*
X126149000Y-138266184D01*
X126181703Y-138101772D01*
X126245853Y-137946900D01*
X126338985Y-137807519D01*
X126457519Y-137688985D01*
X126596900Y-137595853D01*
X126751772Y-137531703D01*
X126916184Y-137499000D01*
X127083816Y-137499000D01*
X127248228Y-137531703D01*
X127248228Y-137531703D01*
G37*
G36*
X137691225Y-131525454D02*
X138021658Y-131591181D01*
X138289599Y-131702166D01*
X138955439Y-131977966D01*
X139795825Y-132539494D01*
X140510506Y-133254175D01*
X141072034Y-134094561D01*
X141102576Y-134168296D01*
X141458819Y-135028342D01*
X141656000Y-136019641D01*
X141656000Y-137030359D01*
X141458819Y-138021658D01*
X141357533Y-138266184D01*
X141072034Y-138955439D01*
X140510506Y-139795825D01*
X139795825Y-140510506D01*
X138955439Y-141072034D01*
X138408443Y-141298607D01*
X138021658Y-141458819D01*
X137915309Y-141479973D01*
X137030361Y-141656000D01*
X136019639Y-141656000D01*
X135134691Y-141479973D01*
X135028342Y-141458819D01*
X134641557Y-141298607D01*
X134094561Y-141072034D01*
X133254175Y-140510506D01*
X132539494Y-139795825D01*
X131977966Y-138955439D01*
X131692467Y-138266184D01*
X131591181Y-138021658D01*
X131394000Y-137030359D01*
X131394000Y-136019641D01*
X131591181Y-135028342D01*
X131947424Y-134168296D01*
X131977966Y-134094561D01*
X132539494Y-133254175D01*
X133254175Y-132539494D01*
X134094561Y-131977966D01*
X134760401Y-131702166D01*
X135028342Y-131591181D01*
X135358775Y-131525454D01*
X136019639Y-131394000D01*
X137030361Y-131394000D01*
X137691225Y-131525454D01*
X137691225Y-131525454D01*
G37*
G36*
X118641225Y-131525454D02*
X118971658Y-131591181D01*
X119239599Y-131702166D01*
X119905439Y-131977966D01*
X120745825Y-132539494D01*
X121460506Y-133254175D01*
X122022034Y-134094561D01*
X122052576Y-134168296D01*
X122408819Y-135028342D01*
X122606000Y-136019641D01*
X122606000Y-137030359D01*
X122408819Y-138021658D01*
X122307533Y-138266184D01*
X122022034Y-138955439D01*
X121460506Y-139795825D01*
X120745825Y-140510506D01*
X119905439Y-141072034D01*
X119358443Y-141298607D01*
X118971658Y-141458819D01*
X118865309Y-141479973D01*
X117980361Y-141656000D01*
X116969639Y-141656000D01*
X116084691Y-141479973D01*
X115978342Y-141458819D01*
X115591557Y-141298607D01*
X115044561Y-141072034D01*
X114204175Y-140510506D01*
X113489494Y-139795825D01*
X112927966Y-138955439D01*
X112642467Y-138266184D01*
X112541181Y-138021658D01*
X112344000Y-137030359D01*
X112344000Y-136019641D01*
X112541181Y-135028342D01*
X112897424Y-134168296D01*
X112927966Y-134094561D01*
X113489494Y-133254175D01*
X114204175Y-132539494D01*
X115044561Y-131977966D01*
X115710401Y-131702166D01*
X115978342Y-131591181D01*
X116308775Y-131525454D01*
X116969639Y-131394000D01*
X117980361Y-131394000D01*
X118641225Y-131525454D01*
X118641225Y-131525454D01*
G37*
G36*
X127306565Y-129799389D02*
X127497834Y-129878615D01*
X127669976Y-129993637D01*
X127816363Y-130140024D01*
X127931385Y-130312166D01*
X128010611Y-130503435D01*
X128051000Y-130706484D01*
X128051000Y-130913516D01*
X128010611Y-131116565D01*
X127931385Y-131307834D01*
X127846045Y-131435554D01*
X127834494Y-131457164D01*
X127827381Y-131480613D01*
X127824979Y-131505000D01*
X127827381Y-131529386D01*
X127834494Y-131552835D01*
X127846045Y-131574446D01*
X127931385Y-131702166D01*
X128010611Y-131893435D01*
X128051000Y-132096484D01*
X128051000Y-132303516D01*
X128010611Y-132506565D01*
X127931385Y-132697834D01*
X127816363Y-132869976D01*
X127808898Y-132877441D01*
X127793352Y-132896383D01*
X127781801Y-132917994D01*
X127774688Y-132941443D01*
X127772286Y-132965829D01*
X127774688Y-132990215D01*
X127781800Y-133013659D01*
X127818297Y-133101772D01*
X127851000Y-133266184D01*
X127851000Y-133433816D01*
X127818297Y-133598228D01*
X127754147Y-133753100D01*
X127661015Y-133892481D01*
X127542481Y-134011015D01*
X127403100Y-134104147D01*
X127248228Y-134168297D01*
X127083816Y-134201000D01*
X126916184Y-134201000D01*
X126751772Y-134168297D01*
X126596900Y-134104147D01*
X126457519Y-134011015D01*
X126338985Y-133892481D01*
X126245853Y-133753100D01*
X126181703Y-133598228D01*
X126149000Y-133433816D01*
X126149000Y-133266184D01*
X126181703Y-133101772D01*
X126218200Y-133013659D01*
X126225312Y-132990214D01*
X126227714Y-132965828D01*
X126225312Y-132941442D01*
X126218199Y-132917993D01*
X126206647Y-132896382D01*
X126191102Y-132877441D01*
X126183637Y-132869976D01*
X126068615Y-132697834D01*
X125989389Y-132506565D01*
X125949000Y-132303516D01*
X125949000Y-132096484D01*
X125989389Y-131893435D01*
X126068615Y-131702166D01*
X126153955Y-131574446D01*
X126165506Y-131552836D01*
X126172619Y-131529387D01*
X126175021Y-131505000D01*
X126172619Y-131480614D01*
X126165506Y-131457165D01*
X126153955Y-131435554D01*
X126068615Y-131307834D01*
X125989389Y-131116565D01*
X125949000Y-130913516D01*
X125949000Y-130706484D01*
X125989389Y-130503435D01*
X126068615Y-130312166D01*
X126183637Y-130140024D01*
X126330024Y-129993637D01*
X126502166Y-129878615D01*
X126693435Y-129799389D01*
X126896484Y-129759000D01*
X127103516Y-129759000D01*
X127306565Y-129799389D01*
X127306565Y-129799389D01*
G37*
G36*
X126082527Y-124778736D02*
X126182410Y-124798604D01*
X126464674Y-124915521D01*
X126718705Y-125085259D01*
X126934741Y-125301295D01*
X127104479Y-125555326D01*
X127221396Y-125837590D01*
X127281000Y-126137240D01*
X127281000Y-126442760D01*
X127221396Y-126742410D01*
X127104479Y-127024674D01*
X126934741Y-127278705D01*
X126718705Y-127494741D01*
X126464674Y-127664479D01*
X126182410Y-127781396D01*
X126082527Y-127801264D01*
X125882762Y-127841000D01*
X125577238Y-127841000D01*
X125377473Y-127801264D01*
X125277590Y-127781396D01*
X124995326Y-127664479D01*
X124741295Y-127494741D01*
X124525259Y-127278705D01*
X124355521Y-127024674D01*
X124238604Y-126742410D01*
X124179000Y-126442760D01*
X124179000Y-126137240D01*
X124238604Y-125837590D01*
X124355521Y-125555326D01*
X124525259Y-125301295D01*
X124741295Y-125085259D01*
X124995326Y-124915521D01*
X125277590Y-124798604D01*
X125377473Y-124778736D01*
X125577238Y-124739000D01*
X125882762Y-124739000D01*
X126082527Y-124778736D01*
X126082527Y-124778736D01*
G37*
G36*
X126082527Y-108978736D02*
X126182410Y-108998604D01*
X126464674Y-109115521D01*
X126718705Y-109285259D01*
X126934741Y-109501295D01*
X127104479Y-109755326D01*
X127221396Y-110037590D01*
X127281000Y-110337240D01*
X127281000Y-110642760D01*
X127221396Y-110942410D01*
X127104479Y-111224674D01*
X126934741Y-111478705D01*
X126718705Y-111694741D01*
X126464674Y-111864479D01*
X126182410Y-111981396D01*
X126082527Y-112001264D01*
X125882762Y-112041000D01*
X125577238Y-112041000D01*
X125377473Y-112001264D01*
X125277590Y-111981396D01*
X124995326Y-111864479D01*
X124741295Y-111694741D01*
X124525259Y-111478705D01*
X124355521Y-111224674D01*
X124238604Y-110942410D01*
X124179000Y-110642760D01*
X124179000Y-110337240D01*
X124238604Y-110037590D01*
X124355521Y-109755326D01*
X124525259Y-109501295D01*
X124741295Y-109285259D01*
X124995326Y-109115521D01*
X125277590Y-108998604D01*
X125377473Y-108978736D01*
X125577238Y-108939000D01*
X125882762Y-108939000D01*
X126082527Y-108978736D01*
X126082527Y-108978736D01*
G37*
G36*
X128622527Y-103823736D02*
X128722410Y-103843604D01*
X129004674Y-103960521D01*
X129258705Y-104130259D01*
X129474741Y-104346295D01*
X129644479Y-104600326D01*
X129761396Y-104882590D01*
X129821000Y-105182240D01*
X129821000Y-105487760D01*
X129761396Y-105787410D01*
X129644479Y-106069674D01*
X129474741Y-106323705D01*
X129258705Y-106539741D01*
X129004674Y-106709479D01*
X128722410Y-106826396D01*
X128622527Y-106846264D01*
X128422762Y-106886000D01*
X128117238Y-106886000D01*
X127917473Y-106846264D01*
X127817590Y-106826396D01*
X127535326Y-106709479D01*
X127281295Y-106539741D01*
X127065259Y-106323705D01*
X126895521Y-106069674D01*
X126778604Y-105787410D01*
X126719000Y-105487760D01*
X126719000Y-105182240D01*
X126778604Y-104882590D01*
X126895521Y-104600326D01*
X127065259Y-104346295D01*
X127281295Y-104130259D01*
X127535326Y-103960521D01*
X127817590Y-103843604D01*
X127917473Y-103823736D01*
X128117238Y-103784000D01*
X128422762Y-103784000D01*
X128622527Y-103823736D01*
X128622527Y-103823736D01*
G37*
G36*
X128622527Y-88023736D02*
X128722410Y-88043604D01*
X129004674Y-88160521D01*
X129258705Y-88330259D01*
X129474741Y-88546295D01*
X129644479Y-88800326D01*
X129761396Y-89082590D01*
X129821000Y-89382240D01*
X129821000Y-89687760D01*
X129761396Y-89987410D01*
X129644479Y-90269674D01*
X129474741Y-90523705D01*
X129258705Y-90739741D01*
X129004674Y-90909479D01*
X128722410Y-91026396D01*
X128622527Y-91046264D01*
X128422762Y-91086000D01*
X128117238Y-91086000D01*
X127917473Y-91046264D01*
X127817590Y-91026396D01*
X127535326Y-90909479D01*
X127281295Y-90739741D01*
X127065259Y-90523705D01*
X126895521Y-90269674D01*
X126778604Y-89987410D01*
X126719000Y-89687760D01*
X126719000Y-89382240D01*
X126778604Y-89082590D01*
X126895521Y-88800326D01*
X127065259Y-88546295D01*
X127281295Y-88330259D01*
X127535326Y-88160521D01*
X127817590Y-88043604D01*
X127917473Y-88023736D01*
X128117238Y-87984000D01*
X128422762Y-87984000D01*
X128622527Y-88023736D01*
X128622527Y-88023736D01*
G37*
G36*
X127248228Y-81731703D02*
X127403100Y-81795853D01*
X127542481Y-81888985D01*
X127661015Y-82007519D01*
X127754147Y-82146900D01*
X127818297Y-82301772D01*
X127851000Y-82466184D01*
X127851000Y-82633816D01*
X127818297Y-82798228D01*
X127754147Y-82953100D01*
X127754144Y-82953104D01*
X127752058Y-82958141D01*
X127745635Y-82970155D01*
X127738520Y-82993604D01*
X127736116Y-83017990D01*
X127738516Y-83042376D01*
X127745627Y-83065826D01*
X127757176Y-83087438D01*
X127772728Y-83106389D01*
X127816363Y-83150024D01*
X127931385Y-83322166D01*
X128010611Y-83513435D01*
X128051000Y-83716484D01*
X128051000Y-83923516D01*
X128010611Y-84126565D01*
X127931385Y-84317834D01*
X127886136Y-84385554D01*
X127874585Y-84407164D01*
X127867472Y-84430614D01*
X127865070Y-84455000D01*
X127867472Y-84479386D01*
X127874585Y-84502835D01*
X127886136Y-84524446D01*
X127931385Y-84592166D01*
X128010611Y-84783435D01*
X128051000Y-84986484D01*
X128051000Y-85193516D01*
X128010611Y-85396565D01*
X127931385Y-85587834D01*
X127816363Y-85759976D01*
X127669976Y-85906363D01*
X127497834Y-86021385D01*
X127306565Y-86100611D01*
X127103516Y-86141000D01*
X126896484Y-86141000D01*
X126693435Y-86100611D01*
X126502166Y-86021385D01*
X126330024Y-85906363D01*
X126183637Y-85759976D01*
X126068615Y-85587834D01*
X125989389Y-85396565D01*
X125949000Y-85193516D01*
X125949000Y-84986484D01*
X125989389Y-84783435D01*
X126068615Y-84592166D01*
X126113864Y-84524446D01*
X126125415Y-84502836D01*
X126132528Y-84479386D01*
X126134930Y-84455000D01*
X126132528Y-84430614D01*
X126125415Y-84407165D01*
X126113864Y-84385554D01*
X126068615Y-84317834D01*
X125989389Y-84126565D01*
X125949000Y-83923516D01*
X125949000Y-83716484D01*
X125989389Y-83513435D01*
X126068615Y-83322166D01*
X126183637Y-83150024D01*
X126227272Y-83106389D01*
X126242818Y-83087447D01*
X126254369Y-83065836D01*
X126261482Y-83042387D01*
X126263884Y-83018001D01*
X126261482Y-82993615D01*
X126254369Y-82970166D01*
X126247945Y-82958148D01*
X126245856Y-82953104D01*
X126245853Y-82953100D01*
X126181703Y-82798228D01*
X126149000Y-82633816D01*
X126149000Y-82466184D01*
X126181703Y-82301772D01*
X126245853Y-82146900D01*
X126338985Y-82007519D01*
X126457519Y-81888985D01*
X126596900Y-81795853D01*
X126751772Y-81731703D01*
X126916184Y-81699000D01*
X127083816Y-81699000D01*
X127248228Y-81731703D01*
X127248228Y-81731703D01*
G37*
G36*
X137691225Y-74375454D02*
X138021658Y-74441181D01*
X138386165Y-74592165D01*
X138955439Y-74827966D01*
X139795825Y-75389494D01*
X140510506Y-76104175D01*
X141072034Y-76944561D01*
X141248671Y-77371000D01*
X141425635Y-77798228D01*
X141458819Y-77878343D01*
X141656000Y-78869639D01*
X141656000Y-79880361D01*
X141458819Y-80871657D01*
X141072034Y-81805439D01*
X140510506Y-82645825D01*
X139795825Y-83360506D01*
X138955439Y-83922034D01*
X138461657Y-84126565D01*
X138021658Y-84308819D01*
X137691225Y-84374546D01*
X137030361Y-84506000D01*
X136019639Y-84506000D01*
X135358775Y-84374546D01*
X135028342Y-84308819D01*
X134588343Y-84126565D01*
X134094561Y-83922034D01*
X133254175Y-83360506D01*
X132539494Y-82645825D01*
X131977966Y-81805439D01*
X131591181Y-80871657D01*
X131394000Y-79880361D01*
X131394000Y-78869639D01*
X131591181Y-77878343D01*
X131624366Y-77798228D01*
X131801329Y-77371000D01*
X131977966Y-76944561D01*
X132539494Y-76104175D01*
X133254175Y-75389494D01*
X134094561Y-74827966D01*
X134663835Y-74592165D01*
X135028342Y-74441181D01*
X135358775Y-74375454D01*
X136019639Y-74244000D01*
X137030361Y-74244000D01*
X137691225Y-74375454D01*
X137691225Y-74375454D01*
G37*
G36*
X118641225Y-74375454D02*
X118971658Y-74441181D01*
X119336165Y-74592165D01*
X119905439Y-74827966D01*
X120745825Y-75389494D01*
X121460506Y-76104175D01*
X122022034Y-76944561D01*
X122198671Y-77371000D01*
X122375635Y-77798228D01*
X122408819Y-77878343D01*
X122606000Y-78869639D01*
X122606000Y-79880361D01*
X122408819Y-80871657D01*
X122022034Y-81805439D01*
X121460506Y-82645825D01*
X120745825Y-83360506D01*
X119905439Y-83922034D01*
X119411657Y-84126565D01*
X118971658Y-84308819D01*
X118641225Y-84374546D01*
X117980361Y-84506000D01*
X116969639Y-84506000D01*
X116308775Y-84374546D01*
X115978342Y-84308819D01*
X115538343Y-84126565D01*
X115044561Y-83922034D01*
X114204175Y-83360506D01*
X113489494Y-82645825D01*
X112927966Y-81805439D01*
X112541181Y-80871657D01*
X112344000Y-79880361D01*
X112344000Y-78869639D01*
X112541181Y-77878343D01*
X112574366Y-77798228D01*
X112751329Y-77371000D01*
X112927966Y-76944561D01*
X113489494Y-76104175D01*
X114204175Y-75389494D01*
X115044561Y-74827966D01*
X115613835Y-74592165D01*
X115978342Y-74441181D01*
X116308775Y-74375454D01*
X116969639Y-74244000D01*
X117980361Y-74244000D01*
X118641225Y-74375454D01*
X118641225Y-74375454D01*
G37*
G36*
X127306565Y-74079389D02*
X127497834Y-74158615D01*
X127669976Y-74273637D01*
X127816363Y-74420024D01*
X127931385Y-74592166D01*
X128010611Y-74783435D01*
X128051000Y-74986484D01*
X128051000Y-75193516D01*
X128010611Y-75396565D01*
X127931385Y-75587835D01*
X127899500Y-75635554D01*
X127887949Y-75657165D01*
X127880836Y-75680614D01*
X127878434Y-75705000D01*
X127880836Y-75729387D01*
X127887949Y-75752836D01*
X127899500Y-75774446D01*
X127931385Y-75822165D01*
X128010611Y-76013435D01*
X128051000Y-76216484D01*
X128051000Y-76423516D01*
X128010611Y-76626565D01*
X127931385Y-76817834D01*
X127816363Y-76989976D01*
X127785466Y-77020873D01*
X127769920Y-77039815D01*
X127758369Y-77061426D01*
X127751256Y-77084875D01*
X127748854Y-77109261D01*
X127751256Y-77133647D01*
X127758365Y-77157084D01*
X127818297Y-77301772D01*
X127851000Y-77466184D01*
X127851000Y-77633816D01*
X127818297Y-77798228D01*
X127754147Y-77953100D01*
X127661015Y-78092481D01*
X127542481Y-78211015D01*
X127403100Y-78304147D01*
X127248228Y-78368297D01*
X127083816Y-78401000D01*
X126916184Y-78401000D01*
X126751772Y-78368297D01*
X126596900Y-78304147D01*
X126457519Y-78211015D01*
X126338985Y-78092481D01*
X126245853Y-77953100D01*
X126181703Y-77798228D01*
X126149000Y-77633816D01*
X126149000Y-77466184D01*
X126181703Y-77301772D01*
X126241635Y-77157084D01*
X126248744Y-77133647D01*
X126251146Y-77109261D01*
X126248744Y-77084875D01*
X126241631Y-77061426D01*
X126230080Y-77039815D01*
X126214534Y-77020873D01*
X126183637Y-76989976D01*
X126068615Y-76817834D01*
X125989389Y-76626565D01*
X125949000Y-76423516D01*
X125949000Y-76216484D01*
X125989389Y-76013435D01*
X126068615Y-75822165D01*
X126100500Y-75774446D01*
X126112051Y-75752835D01*
X126119164Y-75729386D01*
X126121566Y-75705000D01*
X126119164Y-75680613D01*
X126112051Y-75657164D01*
X126100500Y-75635554D01*
X126068615Y-75587835D01*
X125989389Y-75396565D01*
X125949000Y-75193516D01*
X125949000Y-74986484D01*
X125989389Y-74783435D01*
X126068615Y-74592166D01*
X126183637Y-74420024D01*
X126330024Y-74273637D01*
X126502166Y-74158615D01*
X126693435Y-74079389D01*
X126896484Y-74039000D01*
X127103516Y-74039000D01*
X127306565Y-74079389D01*
X127306565Y-74079389D01*
G37*
M02*
