G04 #@! TF.GenerationSoftware,KiCad,Pcbnew,5.0.2-bee76a0~70~ubuntu16.04.1*
G04 #@! TF.CreationDate,2021-05-01T11:56:51-07:00*
G04 #@! TF.ProjectId,matching-network-modules,6d617463-6869-46e6-972d-6e6574776f72,rev?*
G04 #@! TF.SameCoordinates,Original*
G04 #@! TF.FileFunction,Copper,L1,Top*
G04 #@! TF.FilePolarity,Positive*
%FSLAX46Y46*%
G04 Gerber Fmt 4.6, Leading zero omitted, Abs format (unit mm)*
G04 Created by KiCad (PCBNEW 5.0.2-bee76a0~70~ubuntu16.04.1) date Sat 01 May 2021 11:56:51 AM PDT*
%MOMM*%
%LPD*%
G01*
G04 APERTURE LIST*
G04 #@! TA.AperFunction,ComponentPad*
%ADD10C,1.600000*%
G04 #@! TD*
G04 #@! TA.AperFunction,ComponentPad*
%ADD11C,2.000000*%
G04 #@! TD*
G04 #@! TA.AperFunction,ComponentPad*
%ADD12C,3.000000*%
G04 #@! TD*
G04 #@! TA.AperFunction,ComponentPad*
%ADD13C,10.160000*%
G04 #@! TD*
G04 #@! TA.AperFunction,Conductor*
%ADD14C,3.810000*%
G04 #@! TD*
G04 #@! TA.AperFunction,Conductor*
%ADD15C,5.080000*%
G04 #@! TD*
G04 APERTURE END LIST*
D10*
G04 #@! TO.P,C1,2*
G04 #@! TO.N,Net-(C1-Pad2)*
X127000000Y-82550000D03*
G04 #@! TO.P,C1,1*
G04 #@! TO.N,Net-(C1-Pad1)*
X127000000Y-77550000D03*
G04 #@! TD*
D11*
G04 #@! TO.P,C2,1*
G04 #@! TO.N,Net-(C1-Pad1)*
X127000000Y-76320000D03*
G04 #@! TO.P,C2,2*
G04 #@! TO.N,Net-(C1-Pad2)*
X127000000Y-83820000D03*
G04 #@! TD*
G04 #@! TO.P,C3,1*
G04 #@! TO.N,Net-(C1-Pad1)*
X127000000Y-75090000D03*
G04 #@! TO.P,C3,2*
G04 #@! TO.N,Net-(C1-Pad2)*
X127000000Y-85090000D03*
G04 #@! TD*
D10*
G04 #@! TO.P,C4,1*
G04 #@! TO.N,Out+*
X127000000Y-133350000D03*
G04 #@! TO.P,C4,2*
G04 #@! TO.N,Out-*
X127000000Y-138350000D03*
G04 #@! TD*
D11*
G04 #@! TO.P,C5,2*
G04 #@! TO.N,Out-*
X127000000Y-139700000D03*
G04 #@! TO.P,C5,1*
G04 #@! TO.N,Out+*
X127000000Y-132200000D03*
G04 #@! TD*
G04 #@! TO.P,C6,2*
G04 #@! TO.N,Out-*
X127000000Y-140810000D03*
G04 #@! TO.P,C6,1*
G04 #@! TO.N,Out+*
X127000000Y-130810000D03*
G04 #@! TD*
D12*
G04 #@! TO.P,L1,1*
G04 #@! TO.N,Net-(C1-Pad1)*
X125730000Y-110490000D03*
G04 #@! TO.P,L1,2*
G04 #@! TO.N,Out+*
X125730000Y-126290000D03*
G04 #@! TD*
G04 #@! TO.P,L2,2*
G04 #@! TO.N,Out-*
X128270000Y-105335000D03*
G04 #@! TO.P,L2,1*
G04 #@! TO.N,Net-(C1-Pad2)*
X128270000Y-89535000D03*
G04 #@! TD*
D13*
G04 #@! TO.P,J1,1*
G04 #@! TO.N,Net-(C1-Pad1)*
X117475000Y-79375000D03*
G04 #@! TO.P,J1,2*
G04 #@! TO.N,Net-(C1-Pad2)*
X136525000Y-79375000D03*
G04 #@! TO.P,J1,3*
G04 #@! TO.N,Out+*
X117475000Y-136525000D03*
G04 #@! TO.P,J1,4*
G04 #@! TO.N,Out-*
X136525000Y-136525000D03*
G04 #@! TD*
D14*
G04 #@! TO.N,Net-(C1-Pad2)*
X136525000Y-81280000D02*
X136525000Y-79375000D01*
X134620000Y-77470000D02*
X136525000Y-79375000D01*
D15*
G04 #@! TO.N,Net-(C1-Pad1)*
X117475000Y-102235000D02*
X125730000Y-110490000D01*
X117475000Y-79375000D02*
X117475000Y-102235000D01*
X127000000Y-76320000D02*
X127000000Y-75205010D01*
D14*
X127000000Y-76320000D02*
X127000000Y-77550000D01*
X119300000Y-77550000D02*
X117475000Y-79375000D01*
D15*
X127000000Y-77550000D02*
X119300000Y-77550000D01*
G04 #@! TO.N,Out+*
X125730000Y-126290000D02*
X121285000Y-130735000D01*
X117475000Y-134545000D02*
X121285000Y-130735000D01*
D14*
X117475000Y-136525000D02*
X117475000Y-134545000D01*
X127000000Y-133350000D02*
X127000000Y-132200000D01*
D15*
X127000000Y-132200000D02*
X127000000Y-130810000D01*
D14*
X120650000Y-133350000D02*
X117475000Y-136525000D01*
D15*
X127000000Y-133350000D02*
X120650000Y-133350000D01*
X127000000Y-127560000D02*
X125730000Y-126290000D01*
X127000000Y-130810000D02*
X127000000Y-127560000D01*
G04 #@! TD*
M02*
